PathFileType	4	(X/Y/Z)	c:/Users/goper/Files/vsCode/490R/osim_files/C17/C17_Static.trc
DataRate	CameraRate	NumFrames	NumMarkers	Units                	OrigDataRate	OrigDataStartFrame	OrigNumFrames
250.00	250.00	7	36	mm	250.0	2850	3257
                Frame#	Time	LPSIS			LASIS			LTH1			LTH2			LTH3			LTH4			LLFE			LMFE			LSH1			LSH2			LSH3			LSH4			LLMAL			LMMAL			LCAL			LMTP5			LTOE			LMTP1			RPSIS			RASIS			RTH1			RTH2			RTH3			RTH4			RLFE			RMFE			RSH1			RSH2			RSH3			RSH4			RLMAL			RMMAL			RCAL			RMTP1			RTOE			RMTP5		
		X1	Y1	Z1	X2	Y2	Z2	X3	Y3	Z3	X4	Y4	Z4	X5	Y5	Z5	X6	Y6	Z6	X7	Y7	Z7	X8	Y8	Z8	X9	Y9	Z9	X10	Y10	Z10	X11	Y11	Z11	X12	Y12	Z12	X13	Y13	Z13	X14	Y14	Z14	X15	Y15	Z15	X16	Y16	Z16	X17	Y17	Z17	X18	Y18	Z18	X19	Y19	Z19	X20	Y20	Z20	X21	Y21	Z21	X22	Y22	Z22	X23	Y23	Z23	X24	Y24	Z24	X25	Y25	Z25	X26	Y26	Z26	X27	Y27	Z27	X28	Y28	Z28	X29	Y29	Z29	X30	Y30	Z30	X31	Y31	Z31	X32	Y32	Z32	X33	Y33	Z33	X34	Y34	Z34	X35	Y35	Z35	X36	Y36	Z36

2850	11.39600	-305.53418	1085.66699	406.26025	-100.00531	1032.70190	315.73166	-205.22339	754.69019	263.26031	-203.66138	710.67273	262.97272	-143.08989	752.29462	261.53238	-149.87968	707.74475	262.44281	-209.69624	514.57416	279.41348	-208.61272	503.97488	401.95776	-279.28448	289.76236	262.40231	-277.92029	246.65662	260.54675	-216.57433	284.38120	255.99947	-225.81813	241.18404	257.06946	-260.50415	97.97907	266.61926	-246.43243	97.91955	352.57068	-333.38333	54.38185	308.84875	-143.26761	41.15301	235.82957	-83.16043	59.07341	302.89087	-100.90837	40.86432	352.45612	-309.18417	1080.42078	480.62964	-122.32645	1041.77295	595.87500	-205.66208	782.52319	659.28796	-208.75821	736.19806	655.75391	-145.75664	774.47479	652.68011	-156.93750	727.96362	654.45288	-208.54256	506.80524	654.28290	-215.61024	502.90466	528.28479	-292.15591	328.04193	678.92560	-290.55475	282.26282	675.06775	-230.34189	322.51010	682.61786	-238.41579	275.93091	679.45715	-272.30881	89.42997	666.47278	-245.91742	101.59740	579.77924	-339.67532	50.26258	629.33350	-106.93332	41.96555	578.43982	-90.72863	63.19471	624.62781	-142.13940	35.84623	696.61249
2851	11.40000	-305.51398	1085.64417	406.26233	-99.98579	1032.72974	315.74716	-205.25606	754.67145	263.29889	-203.86049	710.35510	263.34735	-143.05463	752.31818	261.56592	-149.84125	707.77136	262.46149	-209.68970	514.58917	279.42642	-208.69415	503.95596	401.97537	-279.32846	289.74405	262.44608	-277.91296	246.65656	260.55469	-216.55661	284.41705	255.99084	-225.82515	241.20207	257.08102	-260.52731	97.97746	266.63541	-246.46626	97.92177	352.56113	-333.41669	54.38360	308.82474	-143.29137	41.14422	235.81857	-83.16967	59.09730	302.90228	-100.95822	40.84544	352.48120	-309.16202	1080.38733	480.65021	-122.32896	1041.78271	595.90997	-205.74390	782.50214	659.30347	-208.82043	736.18311	655.76184	-145.77467	774.47412	652.69940	-156.96623	727.97900	654.48059	-208.60942	506.77878	654.30200	-215.54707	502.91113	528.11664	-292.18622	328.02859	678.92163	-290.64096	282.22910	675.05743	-230.37994	322.51596	682.62494	-238.40712	275.97247	679.49139	-272.50427	89.23893	666.38440	-245.92969	101.59145	579.78674	-339.66205	50.21036	629.36719	-106.93884	41.98848	578.43536	-90.72002	63.22046	624.64246	-142.19345	35.83517	696.63202
2852	11.40400	-305.54034	1085.64294	406.23212	-99.95633	1032.73865	315.78143	-205.23189	754.68585	263.33377	-203.82841	710.36304	263.37970	-143.03293	752.33490	261.59137	-149.84473	707.78137	262.48077	-209.70818	514.60046	279.43829	-208.73799	503.93509	401.95813	-279.37820	289.73044	262.45874	-277.92978	246.65489	260.56927	-216.56068	284.43661	256.00803	-225.84534	241.19955	257.07986	-260.53860	97.98077	266.62744	-246.47774	97.91932	352.57492	-333.41965	54.36519	308.83221	-143.29749	41.13297	235.84290	-83.16442	59.08683	302.91675	-100.97004	40.82306	352.48669	-309.20593	1080.39575	480.65576	-122.35836	1041.78857	595.95148	-205.78036	782.44348	659.31006	-208.81252	736.16968	655.77814	-145.81738	774.45892	652.74719	-156.98683	727.97626	654.50769	-208.64433	506.76929	654.29712	-215.25972	503.05518	527.96875	-292.20145	328.00143	678.91858	-290.65277	282.18695	675.06354	-230.41493	322.51297	682.65179	-238.50620	275.89050	679.46771	-272.53448	89.18801	666.39069	-245.92485	101.59843	579.78070	-339.62488	50.15514	629.37738	-106.94456	42.00431	578.43970	-90.72310	63.23277	624.64752	-142.22081	35.80577	696.65332
2853	11.40800	-305.60519	1085.72131	406.19000	-99.95426	1032.72363	315.82693	-205.27628	754.66522	263.36475	-203.82408	710.34521	263.39215	-143.02267	752.32306	261.62170	-149.80151	707.78638	262.51764	-209.70624	514.59399	279.45273	-208.78920	503.93198	401.96609	-279.38110	289.71973	262.45831	-277.93484	246.65714	260.57083	-216.55215	284.43951	256.02625	-225.86554	241.17728	257.09442	-260.54117	97.96745	266.63309	-246.45120	97.90404	352.58466	-333.41843	54.38041	308.84143	-143.30858	41.08567	235.86813	-83.17999	59.05522	302.93015	-100.98089	40.79710	352.49048	-309.20926	1080.38074	480.63217	-122.35797	1041.75378	595.97418	-205.79836	782.37866	659.33887	-208.83023	736.13873	655.82465	-145.84317	774.43646	652.78259	-156.99922	727.95013	654.56085	-208.69791	506.71750	654.31616	-215.82993	502.83508	528.35052	-292.22110	327.96490	678.95593	-290.69455	282.07498	675.06726	-230.41486	322.47543	682.66418	-238.54961	275.84702	679.50299	-272.56375	89.13237	666.40857	-245.93143	101.59970	579.78516	-339.64844	50.12993	629.38391	-106.92712	42.01106	578.45148	-90.74622	63.22526	624.64429	-142.35646	35.64924	696.59979
2854	11.41200	-305.60519	1085.75378	406.15524	-99.93700	1032.72925	315.84528	-205.24231	754.65009	263.37961	-203.81470	710.34705	263.41132	-142.99741	752.31628	261.63260	-149.79333	707.79504	262.53641	-209.71251	514.60022	279.46075	-208.79704	503.94223	401.96988	-279.39178	289.71777	262.46436	-277.93161	246.65273	260.57166	-216.53929	284.45386	256.03186	-225.86284	241.17760	257.09952	-260.55392	97.97836	266.61572	-246.45114	97.88276	352.61609	-333.46161	54.40515	308.80991	-143.30927	41.03516	235.89262	-83.17312	59.05500	302.94354	-101.01913	40.74776	352.52560	-309.22296	1080.42261	480.62033	-122.39625	1041.73120	596.01526	-205.83583	782.32666	659.34705	-208.81291	736.09125	655.85999	-145.85423	774.41376	652.82166	-157.01978	727.93817	654.59149	-208.70943	506.67554	654.33405	-215.48088	502.91959	528.23346	-292.21933	327.91028	678.96826	-290.51889	282.00174	675.23492	-230.47786	322.44333	682.70233	-238.56123	275.80084	679.51306	-272.57727	89.09882	666.40454	-245.95358	101.58013	579.78809	-339.61319	50.08896	629.42596	-106.94418	42.00335	578.44720	-90.69090	63.25993	624.62738	-142.24127	35.75896	696.67621
2855	11.41600	-305.59137	1085.81873	406.13669	-99.92519	1032.72266	315.87424	-205.22362	754.60150	263.39734	-203.81369	710.32477	263.43689	-142.99918	752.30560	261.65817	-149.76941	707.78082	262.55692	-209.73753	514.56451	279.47083	-208.80771	503.93018	401.95044	-279.37582	289.70392	262.44037	-277.94623	246.61357	260.58179	-216.57083	284.43597	256.03177	-225.87083	241.16270	257.10312	-260.56287	97.96188	266.62173	-246.45584	97.83519	352.62280	-333.46884	54.40688	308.78986	-143.34158	40.99871	235.90533	-83.17381	59.02773	302.95987	-101.01032	40.71965	352.53632	-309.25620	1080.43396	480.62366	-122.42706	1041.71655	596.03925	-205.85339	782.28711	659.37610	-208.80685	736.06152	655.90588	-145.88228	774.39667	652.84656	-157.04680	727.90533	654.60883	-208.74614	506.64642	654.35028	-215.32570	503.03903	528.00836	-292.20569	327.88348	678.98505	-290.55713	281.91409	675.25024	-230.50023	322.42633	682.70282	-238.58966	275.75967	679.50433	-272.58447	89.06094	666.40393	-245.94708	101.56889	579.77728	-339.60144	50.04701	629.42334	-106.93874	41.99142	578.44495	-90.69623	63.26767	624.60370	-142.37128	35.59978	696.60040
2856	11.42000	-305.61145	1085.88208	406.06842	-99.90918	1032.71375	315.90274	-205.28717	754.57831	263.44397	-203.80055	710.29913	263.45148	-142.97609	752.29877	261.67310	-149.78624	707.75671	262.58264	-209.74367	514.54633	279.48279	-208.80441	503.92227	401.96506	-279.40402	289.69318	262.44028	-277.97391	246.60126	260.60547	-216.54016	284.43692	256.04050	-225.89436	241.12692	257.11594	-260.59061	97.92768	266.62317	-246.47508	97.81392	352.64304	-333.48477	54.42152	308.77332	-143.37227	40.96440	235.91927	-83.18392	59.02046	302.96585	-101.04903	40.69834	352.53918	-309.27167	1080.44775	480.60181	-122.45245	1041.70410	596.08124	-205.90025	782.24725	659.38989	-208.87448	736.01678	655.91345	-145.93317	774.37811	652.86633	-157.12024	727.87427	654.65295	-208.79301	506.61472	654.36792	-215.52274	502.90561	528.24854	-292.24338	327.83218	678.99908	-289.62317	282.78513	675.70081	-230.55185	322.38626	682.72491	-238.66342	275.72675	679.53851	-272.60681	89.05338	666.39972	-245.95956	101.54910	579.79016	-339.61279	50.02873	629.43408	-106.95494	41.99082	578.45947	-90.66661	63.28383	624.58496	-142.38733	35.57479	696.59918
